<?xml version="1.0" encoding="UTF-8" standalone="no"?>
<!DOCTYPE svg PUBLIC "-//W3C//DTD SVG 1.1//EN" "http://www.w3.org/Graphics/SVG/1.1/DTD/svg11.dtd">
<svg width="18" height="18" xmlns="http://www.w3.org/2000/svg" xmlns:xlink="http://www.w3.org/1999/xlink">
<!-- <rect fill="#000" x="0" y="0" width="20" height="20" style="fill-opacity: 0;" /> -->
<rect fill="#fff" x="0" y="0" width="2" height="2" style="fill-opacity: 0;" />
<rect fill="#000" x="2" y="0" width="2" height="2"/>
<rect fill="#000" x="4" y="0" width="2" height="2"/>
<rect fill="#000" x="6" y="0" width="2" height="2"/>
<rect fill="#fff" x="8" y="0" width="2" height="2" style="fill-opacity: 0;" />
<rect fill="#000" x="10" y="0" width="2" height="2"/>
<rect fill="#000" x="12" y="0" width="2" height="2"/>
<rect fill="#000" x="14" y="0" width="2" height="2"/>
<rect fill="#000" x="16" y="0" width="2" height="2"/>
<rect fill="#000" x="0" y="2" width="2" height="2"/>
<rect fill="#fff" x="2" y="2" width="2" height="2" style="fill-opacity: 0;" />
<rect fill="#000" x="4" y="2" width="2" height="2"/>
<rect fill="#fff" x="6" y="2" width="2" height="2" style="fill-opacity: 0;" />
<rect fill="#000" x="8" y="2" width="2" height="2"/>
<rect fill="#fff" x="10" y="2" width="2" height="2" style="fill-opacity: 0;" />
<rect fill="#000" x="12" y="2" width="2" height="2"/>
<rect fill="#000" x="14" y="2" width="2" height="2"/>
<rect fill="#000" x="16" y="2" width="2" height="2"/>
<rect fill="#000" x="0" y="4" width="2" height="2"/>
<rect fill="#000" x="2" y="4" width="2" height="2"/>
<rect fill="#fff" x="4" y="4" width="2" height="2" style="fill-opacity: 0;" />
<rect fill="#000" x="6" y="4" width="2" height="2"/>
<rect fill="#000" x="8" y="4" width="2" height="2"/>
<rect fill="#000" x="10" y="4" width="2" height="2"/>
<rect fill="#fff" x="12" y="4" width="2" height="2" style="fill-opacity: 0;" />
<rect fill="#000" x="14" y="4" width="2" height="2"/>
<rect fill="#000" x="16" y="4" width="2" height="2"/>
<rect fill="#000" x="0" y="6" width="2" height="2"/>
<rect fill="#fff" x="2" y="6" width="2" height="2" style="fill-opacity: 0;" />
<rect fill="#000" x="4" y="6" width="2" height="2"/>
<rect fill="#fff" x="6" y="6" width="2" height="2" style="fill-opacity: 0;" />
<rect fill="#000" x="8" y="6" width="2" height="2"/>
<rect fill="#fff" x="10" y="6" width="2" height="2" style="fill-opacity: 0;" />
<rect fill="#000" x="12" y="6" width="2" height="2"/>
<rect fill="#fff" x="14" y="6" width="2" height="2" style="fill-opacity: 0;" />
<rect fill="#000" x="16" y="6" width="2" height="2"/>
<rect fill="#fff" x="0" y="8" width="2" height="2" style="fill-opacity: 0;" />
<rect fill="#000" x="2" y="8" width="2" height="2"/>
<rect fill="#000" x="4" y="8" width="2" height="2"/>
<rect fill="#000" x="6" y="8" width="2" height="2"/>
<rect fill="#fff" x="8" y="8" width="2" height="2" style="fill-opacity: 0;" />
<rect fill="#000" x="10" y="8" width="2" height="2"/>
<rect fill="#000" x="12" y="8" width="2" height="2"/>
<rect fill="#000" x="14" y="8" width="2" height="2"/>
<rect fill="#fff" x="16" y="8" width="2" height="2" style="fill-opacity: 0;" />
<rect fill="#000" x="0" y="10" width="2" height="2"/>
<rect fill="#fff" x="2" y="10" width="2" height="2" style="fill-opacity: 0;" />
<rect fill="#000" x="4" y="10" width="2" height="2"/>
<rect fill="#fff" x="6" y="10" width="2" height="2" style="fill-opacity: 0;" />
<rect fill="#000" x="8" y="10" width="2" height="2"/>
<rect fill="#fff" x="10" y="10" width="2" height="2" style="fill-opacity: 0;" />
<rect fill="#000" x="12" y="10" width="2" height="2"/>
<rect fill="#fff" x="14" y="10" width="2" height="2" style="fill-opacity: 0;" />
<rect fill="#000" x="16" y="10" width="2" height="2"/>
<rect fill="#000" x="0" y="12" width="2" height="2"/>
<rect fill="#000" x="2" y="12" width="2" height="2"/>
<rect fill="#fff" x="4" y="12" width="2" height="2" style="fill-opacity: 0;" />
<rect fill="#000" x="6" y="12" width="2" height="2"/>
<rect fill="#000" x="8" y="12" width="2" height="2"/>
<rect fill="#000" x="10" y="12" width="2" height="2"/>
<rect fill="#fff" x="12" y="12" width="2" height="2" style="fill-opacity: 0;" />
<rect fill="#000" x="14" y="12" width="2" height="2"/>
<rect fill="#000" x="16" y="12" width="2" height="2"/>
<rect fill="#000" x="0" y="14" width="2" height="2"/>
<rect fill="#fff" x="2" y="14" width="2" height="2" style="fill-opacity: 0;" />
<rect fill="#000" x="4" y="14" width="2" height="2"/>
<rect fill="#fff" x="6" y="14" width="2" height="2" style="fill-opacity: 0;" />
<rect fill="#000" x="8" y="14" width="2" height="2"/>
<rect fill="#fff" x="10" y="14" width="2" height="2" style="fill-opacity: 0;" />
<rect fill="#000" x="12" y="14" width="2" height="2"/>
<rect fill="#000" x="14" y="14" width="2" height="2"/>
<rect fill="#000" x="16" y="14" width="2" height="2"/>
<rect fill="#fff" x="0" y="16" width="2" height="2" style="fill-opacity: 0;" />
<rect fill="#000" x="2" y="16" width="2" height="2"/>
<rect fill="#000" x="4" y="16" width="2" height="2"/>
<rect fill="#000" x="6" y="16" width="2" height="2"/>
<rect fill="#fff" x="8" y="16" width="2" height="2" style="fill-opacity: 0;" />
<rect fill="#000" x="10" y="16" width="2" height="2"/>
<rect fill="#000" x="12" y="16" width="2" height="2"/>
<rect fill="#000" x="14" y="16" width="2" height="2"/>
<rect fill="#000" x="16" y="16" width="2" height="2"/>
</svg>